<mxfile host="app.diagrams.net" modified="2023-11-18T20:59:01.614Z" agent="Mozilla/5.0 (Macintosh; Intel Mac OS X 10_15_7) AppleWebKit/537.36 (KHTML, like Gecko) Chrome/119.0.0.0 Safari/537.36" etag="pAX69OwpCPHaP_u80yVQ" version="22.1.3" type="github">
  <diagram name="Página-1" id="GxpmAXfzKlQYpcV8vLD1">
    <mxGraphModel dx="2269" dy="1386" grid="1" gridSize="10" guides="1" tooltips="1" connect="1" arrows="1" fold="1" page="1" pageScale="1" pageWidth="827" pageHeight="1169" math="0" shadow="0">
      <root>
        <mxCell id="0" />
        <mxCell id="1" parent="0" />
        <mxCell id="7v7PoPrR3EEPkG5Zikph-45" value="AWS Cloud" style="sketch=0;outlineConnect=0;gradientColor=none;html=1;whiteSpace=wrap;fontSize=12;fontStyle=0;shape=mxgraph.aws4.group;grIcon=mxgraph.aws4.group_aws_cloud;strokeColor=#AAB7B8;fillColor=none;verticalAlign=top;align=left;spacingLeft=30;fontColor=#AAB7B8;dashed=0;" vertex="1" parent="1">
          <mxGeometry x="535" y="802" width="385" height="391" as="geometry" />
        </mxCell>
        <mxCell id="7v7PoPrR3EEPkG5Zikph-4" style="edgeStyle=orthogonalEdgeStyle;rounded=0;orthogonalLoop=1;jettySize=auto;html=1;strokeColor=#808080;" edge="1" parent="1" source="cpN0U-L1kkcXePPtnDGo-14" target="md4awAcmVm3brXfSGonh-6">
          <mxGeometry relative="1" as="geometry">
            <mxPoint x="118.2" y="196.25" as="sourcePoint" />
            <mxPoint x="284.2" y="129.25" as="targetPoint" />
            <Array as="points">
              <mxPoint x="270" y="186" />
              <mxPoint x="270" y="266" />
            </Array>
          </mxGeometry>
        </mxCell>
        <mxCell id="cpN0U-L1kkcXePPtnDGo-47" value="" style="rounded=0;whiteSpace=wrap;html=1;fillColor=none;dashed=1;strokeColor=#808080;" parent="1" vertex="1">
          <mxGeometry x="201.65" y="1800" width="272.4" height="81" as="geometry" />
        </mxCell>
        <mxCell id="cpN0U-L1kkcXePPtnDGo-31" value="VPC" style="sketch=0;outlineConnect=0;gradientColor=none;html=1;whiteSpace=wrap;fontSize=12;fontStyle=0;shape=mxgraph.aws4.group;grIcon=mxgraph.aws4.group_vpc;strokeColor=#879196;fillColor=none;verticalAlign=top;align=left;spacingLeft=30;fontColor=#879196;dashed=0;" parent="1" vertex="1">
          <mxGeometry x="1418" y="337.25" width="620" height="490" as="geometry" />
        </mxCell>
        <mxCell id="cpN0U-L1kkcXePPtnDGo-1" value="Client&#xa;Registration" style="text;whiteSpace=wrap;fontStyle=1;fontSize=25;" parent="1" vertex="1">
          <mxGeometry x="13.09" y="550" width="160" height="73" as="geometry" />
        </mxCell>
        <mxCell id="cpN0U-L1kkcXePPtnDGo-24" style="edgeStyle=orthogonalEdgeStyle;rounded=0;orthogonalLoop=1;jettySize=auto;html=1;strokeColor=#808080;" parent="1" source="cpN0U-L1kkcXePPtnDGo-2" target="cpN0U-L1kkcXePPtnDGo-6" edge="1">
          <mxGeometry relative="1" as="geometry" />
        </mxCell>
        <mxCell id="cpN0U-L1kkcXePPtnDGo-25" value="[POST] /registre" style="edgeLabel;html=1;align=center;verticalAlign=middle;resizable=0;points=[];fontSize=15;fontStyle=2" parent="cpN0U-L1kkcXePPtnDGo-24" vertex="1" connectable="0">
          <mxGeometry x="0.325" y="-3" relative="1" as="geometry">
            <mxPoint x="-37" y="-3" as="offset" />
          </mxGeometry>
        </mxCell>
        <mxCell id="cpN0U-L1kkcXePPtnDGo-2" value="&lt;div&gt;&lt;b&gt;WhatsApp&lt;/b&gt; client &lt;/div&gt;" style="dashed=0;outlineConnect=0;html=1;align=center;labelPosition=center;verticalLabelPosition=bottom;verticalAlign=top;shape=mxgraph.weblogos.whatsapp;fillColor=#00E676;strokeColor=#dddddd" parent="1" vertex="1">
          <mxGeometry x="68.2" y="847" width="39.79" height="40" as="geometry" />
        </mxCell>
        <mxCell id="cpN0U-L1kkcXePPtnDGo-6" value="REST API" style="sketch=0;outlineConnect=0;fontColor=#232F3E;gradientColor=none;fillColor=#E7157B;strokeColor=none;dashed=0;verticalLabelPosition=bottom;verticalAlign=top;align=center;html=1;fontSize=12;fontStyle=0;aspect=fixed;pointerEvents=1;shape=mxgraph.aws4.endpoint;" parent="1" vertex="1">
          <mxGeometry x="569.2" y="842" width="50" height="50" as="geometry" />
        </mxCell>
        <mxCell id="cpN0U-L1kkcXePPtnDGo-10" value="Installation" style="text;whiteSpace=wrap;fontStyle=1;fontSize=25;" parent="1" vertex="1">
          <mxGeometry x="13.09" y="50" width="150" height="39" as="geometry" />
        </mxCell>
        <mxCell id="cpN0U-L1kkcXePPtnDGo-14" value="&lt;div&gt;&lt;b&gt;WhatsApp&lt;/b&gt; client &lt;/div&gt;" style="dashed=0;outlineConnect=0;html=1;align=center;labelPosition=center;verticalLabelPosition=bottom;verticalAlign=top;shape=mxgraph.weblogos.whatsapp;fillColor=#00E676;strokeColor=#dddddd" parent="1" vertex="1">
          <mxGeometry x="68.19999999999999" y="166.25" width="39.79" height="40" as="geometry" />
        </mxCell>
        <mxCell id="cpN0U-L1kkcXePPtnDGo-19" style="edgeStyle=orthogonalEdgeStyle;rounded=0;orthogonalLoop=1;jettySize=auto;html=1;strokeColor=#808080;curved=1;" parent="1" source="cpN0U-L1kkcXePPtnDGo-14" target="md4awAcmVm3brXfSGonh-4" edge="1">
          <mxGeometry relative="1" as="geometry">
            <mxPoint x="270.1872" y="186.25" as="targetPoint" />
          </mxGeometry>
        </mxCell>
        <mxCell id="cpN0U-L1kkcXePPtnDGo-21" value="Long-term &lt;br&gt;Curve25519 &lt;br&gt;key pair" style="shape=note;whiteSpace=wrap;html=1;backgroundOutline=1;darkOpacity=0.05;fillColor=#fff2cc;strokeColor=#d6b656;size=12;" parent="1" vertex="1">
          <mxGeometry x="429.15999999999997" y="106.25" width="81" height="50" as="geometry" />
        </mxCell>
        <mxCell id="cpN0U-L1kkcXePPtnDGo-22" value="Medium-term Curve25519 &lt;br&gt;key pair, signed by the Identity Key, and rotated on a periodic&lt;br&gt;timed basis" style="shape=note;whiteSpace=wrap;html=1;backgroundOutline=1;darkOpacity=0.05;fillColor=#fff2cc;strokeColor=#d6b656;size=12;" parent="1" vertex="1">
          <mxGeometry x="429.15999999999997" y="166.25" width="180" height="70" as="geometry" />
        </mxCell>
        <mxCell id="cpN0U-L1kkcXePPtnDGo-23" value="Queue of Curve25519 key pairs for one time use, generated at install time, and replenished as needed" style="shape=note;whiteSpace=wrap;html=1;backgroundOutline=1;darkOpacity=0.05;fillColor=#fff2cc;strokeColor=#d6b656;size=12;" parent="1" vertex="1">
          <mxGeometry x="429.15999999999997" y="246.25" width="211" height="70" as="geometry" />
        </mxCell>
        <mxCell id="cpN0U-L1kkcXePPtnDGo-28" value="" style="sketch=0;points=[[0,0,0],[0.25,0,0],[0.5,0,0],[0.75,0,0],[1,0,0],[0,1,0],[0.25,1,0],[0.5,1,0],[0.75,1,0],[1,1,0],[0,0.25,0],[0,0.5,0],[0,0.75,0],[1,0.25,0],[1,0.5,0],[1,0.75,0]];outlineConnect=0;fontColor=#232F3E;fillColor=#ED7100;strokeColor=#ffffff;dashed=0;verticalLabelPosition=bottom;verticalAlign=top;align=center;html=1;fontSize=12;fontStyle=0;aspect=fixed;shape=mxgraph.aws4.resourceIcon;resIcon=mxgraph.aws4.lambda;" parent="1" vertex="1">
          <mxGeometry x="1538" y="535.25" width="78" height="78" as="geometry" />
        </mxCell>
        <mxCell id="cpN0U-L1kkcXePPtnDGo-29" value="" style="outlineConnect=0;dashed=0;verticalLabelPosition=bottom;verticalAlign=top;align=center;html=1;shape=mxgraph.aws3.android;fillColor=#8CC64F;gradientColor=none;" parent="1" vertex="1">
          <mxGeometry x="1598" y="500.25" width="47.25" height="54" as="geometry" />
        </mxCell>
        <mxCell id="cpN0U-L1kkcXePPtnDGo-30" value="ClientTable" style="outlineConnect=0;dashed=0;verticalLabelPosition=bottom;verticalAlign=top;align=center;html=1;shape=mxgraph.aws3.dynamo_db;fillColor=#2E73B8;gradientColor=none;" parent="1" vertex="1">
          <mxGeometry x="840" y="837.75" width="52" height="58.5" as="geometry" />
        </mxCell>
        <mxCell id="cpN0U-L1kkcXePPtnDGo-32" value="WhatsApp server stores these public keys associated with the user’s identifier." style="shape=note;whiteSpace=wrap;html=1;backgroundOutline=1;darkOpacity=0.05;fillColor=#fff2cc;strokeColor=#d6b656;size=12;" parent="1" vertex="1">
          <mxGeometry x="619.2" y="713" width="211" height="70" as="geometry" />
        </mxCell>
        <mxCell id="cpN0U-L1kkcXePPtnDGo-33" value="Create Session" style="text;whiteSpace=wrap;fontStyle=1;fontSize=25;" parent="1" vertex="1">
          <mxGeometry x="23.750000000000004" y="1350" width="160" height="80" as="geometry" />
        </mxCell>
        <mxCell id="cpN0U-L1kkcXePPtnDGo-34" value="“initiator” requests the recipient&#39;s public Identity Key, public Signed Pre Key and a single public One-Time Pre Key" style="shape=note;whiteSpace=wrap;html=1;backgroundOutline=1;darkOpacity=0.05;fillColor=#fff2cc;strokeColor=#d6b656;size=12;" parent="1" vertex="1">
          <mxGeometry x="189.45000000000002" y="1430" width="342.2" height="60" as="geometry" />
        </mxCell>
        <mxCell id="cpN0U-L1kkcXePPtnDGo-35" value="&lt;div&gt;&lt;b&gt;WhatsApp&lt;/b&gt; client &lt;/div&gt;&lt;div&gt;&lt;br&gt;&lt;/div&gt;&lt;div&gt;&quot;Initiator&quot;&lt;br&gt;&lt;/div&gt;" style="dashed=0;outlineConnect=0;html=1;align=center;labelPosition=center;verticalLabelPosition=bottom;verticalAlign=top;shape=mxgraph.weblogos.whatsapp;fillColor=#00E676;strokeColor=#dddddd" parent="1" vertex="1">
          <mxGeometry x="93.65" y="1510" width="39.79" height="40" as="geometry" />
        </mxCell>
        <mxCell id="cpN0U-L1kkcXePPtnDGo-36" style="edgeStyle=orthogonalEdgeStyle;rounded=0;orthogonalLoop=1;jettySize=auto;html=1;strokeColor=#808080;" parent="1" source="cpN0U-L1kkcXePPtnDGo-35" target="cpN0U-L1kkcXePPtnDGo-38" edge="1">
          <mxGeometry relative="1" as="geometry">
            <mxPoint x="201.65" y="1555" as="sourcePoint" />
          </mxGeometry>
        </mxCell>
        <mxCell id="cpN0U-L1kkcXePPtnDGo-37" value="request recipient public keys" style="edgeLabel;html=1;align=center;verticalAlign=middle;resizable=0;points=[];fontSize=15;fontStyle=2" parent="cpN0U-L1kkcXePPtnDGo-36" vertex="1" connectable="0">
          <mxGeometry x="0.325" y="-3" relative="1" as="geometry">
            <mxPoint x="-71" y="-3" as="offset" />
          </mxGeometry>
        </mxCell>
        <mxCell id="cpN0U-L1kkcXePPtnDGo-38" value="[POST] /session/init" style="sketch=0;outlineConnect=0;fontColor=#232F3E;gradientColor=none;fillColor=#E7157B;strokeColor=none;dashed=0;verticalLabelPosition=bottom;verticalAlign=top;align=center;html=1;fontSize=12;fontStyle=0;aspect=fixed;pointerEvents=1;shape=mxgraph.aws4.endpoint;" parent="1" vertex="1">
          <mxGeometry x="568.65" y="1505" width="50" height="50" as="geometry" />
        </mxCell>
        <mxCell id="cpN0U-L1kkcXePPtnDGo-41" value="Identity Key" style="image;sketch=0;aspect=fixed;html=1;points=[];align=center;fontSize=12;image=img/lib/mscae/Key_Vaults.svg;" parent="1" vertex="1">
          <mxGeometry x="253.55" y="1811" width="28.8" height="30" as="geometry" />
        </mxCell>
        <mxCell id="cpN0U-L1kkcXePPtnDGo-42" value="Signed Pre Key" style="image;sketch=0;aspect=fixed;html=1;points=[];align=center;fontSize=12;image=img/lib/mscae/Key_Vaults.svg;" parent="1" vertex="1">
          <mxGeometry x="332.34999999999997" y="1811" width="28.8" height="30" as="geometry" />
        </mxCell>
        <mxCell id="cpN0U-L1kkcXePPtnDGo-43" value="One-Time&lt;br&gt;Pre Keys" style="image;sketch=0;aspect=fixed;html=1;points=[];align=center;fontSize=12;image=img/lib/mscae/Key_Vaults.svg;" parent="1" vertex="1">
          <mxGeometry x="408.65" y="1811" width="28.8" height="30" as="geometry" />
        </mxCell>
        <mxCell id="cpN0U-L1kkcXePPtnDGo-45" value="" style="endArrow=classic;html=1;rounded=0;dashed=1;strokeColor=#808080;" parent="1" source="cpN0U-L1kkcXePPtnDGo-50" target="cpN0U-L1kkcXePPtnDGo-49" edge="1">
          <mxGeometry width="50" height="50" relative="1" as="geometry">
            <mxPoint x="532.35" y="1620" as="sourcePoint" />
            <mxPoint x="182.35" y="1620" as="targetPoint" />
          </mxGeometry>
        </mxCell>
        <mxCell id="cpN0U-L1kkcXePPtnDGo-46" value="&lt;i&gt;Returns Recipient public keys&lt;/i&gt;" style="edgeLabel;html=1;align=center;verticalAlign=middle;resizable=0;points=[];" parent="cpN0U-L1kkcXePPtnDGo-45" vertex="1" connectable="0">
          <mxGeometry x="0.0351" y="-1" relative="1" as="geometry">
            <mxPoint as="offset" />
          </mxGeometry>
        </mxCell>
        <mxCell id="cpN0U-L1kkcXePPtnDGo-48" value="&lt;div style=&quot;font-size: 11px;&quot;&gt;&lt;font style=&quot;font-size: 11px;&quot;&gt;Server returns the requested public key values.&amp;nbsp;&lt;/font&gt;&lt;/div&gt;&lt;div style=&quot;font-size: 11px;&quot;&gt;&lt;font style=&quot;font-size: 11px;&quot;&gt;A &lt;b&gt;One-Time Pre Key is only used once&lt;/b&gt;,&amp;nbsp;&lt;/font&gt;&lt;/div&gt;&lt;div style=&quot;font-size: 11px;&quot;&gt;&lt;font style=&quot;font-size: 11px;&quot;&gt;so it is removed from server storage after being requested.&amp;nbsp;&lt;/font&gt;&lt;/div&gt;&lt;div style=&quot;font-size: 11px;&quot;&gt;&lt;font style=&quot;font-size: 11px;&quot;&gt;If the recipient’s latest batch of One-Time Pre Keys has been&lt;/font&gt;&lt;/div&gt;&lt;font style=&quot;font-size: 11px;&quot;&gt;consumed and the recipient has not replenished them, no One-Time Pre&lt;br&gt;Key will be returned&lt;/font&gt;" style="shape=note;whiteSpace=wrap;html=1;backgroundOutline=1;darkOpacity=0.05;fillColor=#fff2cc;strokeColor=#d6b656;size=12;" parent="1" vertex="1">
          <mxGeometry x="189.45000000000002" y="1630" width="370" height="100" as="geometry" />
        </mxCell>
        <mxCell id="cpN0U-L1kkcXePPtnDGo-49" value="&lt;div&gt;&lt;b&gt;WhatsApp&lt;/b&gt; client &lt;/div&gt;&lt;div&gt;&lt;br&gt;&lt;/div&gt;&lt;div&gt;&quot;Initiator&quot;&lt;br&gt;&lt;/div&gt;" style="dashed=0;outlineConnect=0;html=1;align=center;labelPosition=center;verticalLabelPosition=bottom;verticalAlign=top;shape=mxgraph.weblogos.whatsapp;fillColor=#00E676;strokeColor=#dddddd" parent="1" vertex="1">
          <mxGeometry x="93.65" y="1765" width="39.79" height="40" as="geometry" />
        </mxCell>
        <mxCell id="cpN0U-L1kkcXePPtnDGo-50" value="[POST] /session/init" style="sketch=0;outlineConnect=0;fontColor=#232F3E;gradientColor=none;fillColor=#E7157B;strokeColor=none;dashed=0;verticalLabelPosition=bottom;verticalAlign=top;align=center;html=1;fontSize=12;fontStyle=0;aspect=fixed;pointerEvents=1;shape=mxgraph.aws4.endpoint;" parent="1" vertex="1">
          <mxGeometry x="562.15" y="1760" width="50" height="50" as="geometry" />
        </mxCell>
        <mxCell id="cpN0U-L1kkcXePPtnDGo-51" value="&amp;nbsp;initiator starts to establish the encryption session " style="shape=note;whiteSpace=wrap;html=1;backgroundOutline=1;darkOpacity=0.05;fillColor=#fff2cc;strokeColor=#d6b656;size=12;" parent="1" vertex="1">
          <mxGeometry x="175.55" y="1960" width="370" height="30" as="geometry" />
        </mxCell>
        <mxCell id="cpN0U-L1kkcXePPtnDGo-55" style="edgeStyle=orthogonalEdgeStyle;rounded=0;orthogonalLoop=1;jettySize=auto;html=1;strokeColor=#808080;" parent="1" source="cpN0U-L1kkcXePPtnDGo-52" target="cpN0U-L1kkcXePPtnDGo-54" edge="1">
          <mxGeometry relative="1" as="geometry" />
        </mxCell>
        <mxCell id="cpN0U-L1kkcXePPtnDGo-56" value="&lt;i&gt;generates&lt;/i&gt;" style="edgeLabel;html=1;align=center;verticalAlign=middle;resizable=0;points=[];" parent="cpN0U-L1kkcXePPtnDGo-55" vertex="1" connectable="0">
          <mxGeometry x="0.1548" y="-2" relative="1" as="geometry">
            <mxPoint x="-23" y="-2" as="offset" />
          </mxGeometry>
        </mxCell>
        <mxCell id="cpN0U-L1kkcXePPtnDGo-52" value="&lt;div&gt;&lt;b&gt;WhatsApp&lt;/b&gt; client &lt;/div&gt;&lt;div&gt;&lt;br&gt;&lt;/div&gt;&lt;div&gt;&quot;Initiator&quot;&lt;br&gt;&lt;/div&gt;" style="dashed=0;outlineConnect=0;html=1;align=center;labelPosition=center;verticalLabelPosition=bottom;verticalAlign=top;shape=mxgraph.weblogos.whatsapp;fillColor=#00E676;strokeColor=#dddddd" parent="1" vertex="1">
          <mxGeometry x="106.76" y="2050" width="39.79" height="40" as="geometry" />
        </mxCell>
        <mxCell id="cpN0U-L1kkcXePPtnDGo-53" value="" style="shape=image;verticalLabelPosition=bottom;labelBackgroundColor=default;verticalAlign=top;aspect=fixed;imageAspect=0;image=https://cdn-icons-png.flaticon.com/512/3470/3470475.png;" parent="1" vertex="1">
          <mxGeometry x="156.65" y="1940" width="45" height="45" as="geometry" />
        </mxCell>
        <mxCell id="cpN0U-L1kkcXePPtnDGo-54" value="Ephemeral Curve25519 key pair" style="image;sketch=0;aspect=fixed;html=1;points=[];align=center;fontSize=12;image=img/lib/mscae/Key_Vaults.svg;" parent="1" vertex="1">
          <mxGeometry x="341.84999999999997" y="2055" width="28.8" height="30" as="geometry" />
        </mxCell>
        <mxCell id="cpN0U-L1kkcXePPtnDGo-57" style="edgeStyle=orthogonalEdgeStyle;rounded=0;orthogonalLoop=1;jettySize=auto;html=1;strokeColor=#808080;" parent="1" source="cpN0U-L1kkcXePPtnDGo-59" target="cpN0U-L1kkcXePPtnDGo-60" edge="1">
          <mxGeometry relative="1" as="geometry" />
        </mxCell>
        <mxCell id="cpN0U-L1kkcXePPtnDGo-58" value="&lt;i&gt;calculates a master secret&amp;nbsp; &lt;br&gt;&lt;/i&gt;" style="edgeLabel;html=1;align=center;verticalAlign=middle;resizable=0;points=[];" parent="cpN0U-L1kkcXePPtnDGo-57" vertex="1" connectable="0">
          <mxGeometry x="0.1548" y="-2" relative="1" as="geometry">
            <mxPoint x="-23" y="-2" as="offset" />
          </mxGeometry>
        </mxCell>
        <mxCell id="cpN0U-L1kkcXePPtnDGo-59" value="&lt;div&gt;&lt;b&gt;WhatsApp&lt;/b&gt; client &lt;/div&gt;&lt;div&gt;&lt;br&gt;&lt;/div&gt;&lt;div&gt;&quot;Initiator&quot;&lt;br&gt;&lt;/div&gt;" style="dashed=0;outlineConnect=0;html=1;align=center;labelPosition=center;verticalLabelPosition=bottom;verticalAlign=top;shape=mxgraph.weblogos.whatsapp;fillColor=#00E676;strokeColor=#dddddd" parent="1" vertex="1">
          <mxGeometry x="104.11" y="2210" width="39.79" height="40" as="geometry" />
        </mxCell>
        <mxCell id="cpN0U-L1kkcXePPtnDGo-60" value="" style="image;sketch=0;aspect=fixed;html=1;points=[];align=center;fontSize=12;image=img/lib/mscae/Key_Vaults.svg;" parent="1" vertex="1">
          <mxGeometry x="422.85" y="2215" width="28.8" height="30" as="geometry" />
        </mxCell>
        <mxCell id="cpN0U-L1kkcXePPtnDGo-63" value="ECDH = Elliptic Curve Diffie-Hellman" style="shape=note;whiteSpace=wrap;html=1;backgroundOutline=1;darkOpacity=0.05;fillColor=#fff2cc;strokeColor=#d6b656;size=12;" parent="1" vertex="1">
          <mxGeometry x="531.65" y="2180" width="204.9" height="30" as="geometry" />
        </mxCell>
        <mxCell id="cpN0U-L1kkcXePPtnDGo-64" value="&lt;div&gt;&lt;font color=&quot;#0000cc&quot;&gt;&lt;i&gt;&lt;span&gt;ECDH(&lt;/span&gt;&lt;span&gt;Initiator &lt;/span&gt;&lt;span&gt;Identity Key, &lt;/span&gt;&lt;span&gt;Recipient &lt;/span&gt;&lt;span&gt;Signed Pre Key) ||&amp;nbsp;&lt;/span&gt;&lt;/i&gt;&lt;/font&gt;&lt;/div&gt;&lt;div&gt;&lt;font color=&quot;#0000cc&quot;&gt;&lt;i&gt;&lt;span&gt;ECDH(Initiator Ephemeral Key, Recipient Identity Key) ||&lt;/span&gt;&lt;/i&gt;&lt;/font&gt;&lt;/div&gt;&lt;div&gt;&lt;font color=&quot;#0000cc&quot;&gt;&lt;i&gt;&lt;span&gt;ECDH(Initiator Ephemeral Key, Recipient Signed Pre Key) ||&amp;nbsp;&lt;/span&gt;&lt;/i&gt;&lt;/font&gt;&lt;/div&gt;&lt;div&gt;&lt;font color=&quot;#0000cc&quot;&gt;&lt;i&gt;&lt;span&gt;ECDH(Initiator Ephemeral, Recipient One-Time Key)&lt;/span&gt;&lt;/i&gt;&lt;/font&gt;&lt;/div&gt;" style="text;whiteSpace=wrap;html=1;fontStyle=0" parent="1" vertex="1">
          <mxGeometry x="321.6499999999999" y="1970" width="560" height="70" as="geometry" />
        </mxCell>
        <mxCell id="A_rUFNCqvE4l7j67bgEG-1" value="" style="sketch=0;points=[[0,0,0],[0.25,0,0],[0.5,0,0],[0.75,0,0],[1,0,0],[0,1,0],[0.25,1,0],[0.5,1,0],[0.75,1,0],[1,1,0],[0,0.25,0],[0,0.5,0],[0,0.75,0],[1,0.25,0],[1,0.5,0],[1,0.75,0]];outlineConnect=0;fontColor=#232F3E;fillColor=#E7157B;strokeColor=#ffffff;dashed=0;verticalLabelPosition=bottom;verticalAlign=top;align=center;html=1;fontSize=12;fontStyle=0;aspect=fixed;shape=mxgraph.aws4.resourceIcon;resIcon=mxgraph.aws4.sns;" parent="1" vertex="1">
          <mxGeometry x="1768" y="377.25" width="78" height="78" as="geometry" />
        </mxCell>
        <mxCell id="md4awAcmVm3brXfSGonh-1" value="" style="sketch=0;pointerEvents=1;shadow=0;dashed=0;html=1;strokeColor=none;labelPosition=center;verticalLabelPosition=bottom;verticalAlign=top;outlineConnect=0;align=center;shape=mxgraph.office.security.key_permissions;fillColor=#2072B8;" parent="1" vertex="1">
          <mxGeometry x="1400" y="75.25" width="25" height="53" as="geometry" />
        </mxCell>
        <mxCell id="md4awAcmVm3brXfSGonh-2" value="" style="sketch=0;pointerEvents=1;shadow=0;dashed=0;html=1;strokeColor=none;labelPosition=center;verticalLabelPosition=bottom;verticalAlign=top;outlineConnect=0;align=center;shape=mxgraph.office.security.key_permissions;fillColor=#DA4026;" parent="1" vertex="1">
          <mxGeometry x="1450" y="75.25" width="25" height="53" as="geometry" />
        </mxCell>
        <mxCell id="md4awAcmVm3brXfSGonh-3" value="" style="sketch=0;pointerEvents=1;shadow=0;dashed=0;html=1;strokeColor=none;labelPosition=center;verticalLabelPosition=bottom;verticalAlign=top;outlineConnect=0;align=center;shape=mxgraph.office.security.key_permissions;fillColor=#7FBA42;" parent="1" vertex="1">
          <mxGeometry x="1492" y="85.25" width="25" height="53" as="geometry" />
        </mxCell>
        <mxCell id="md4awAcmVm3brXfSGonh-4" value="Signed Pre Key" style="sketch=0;pointerEvents=1;shadow=0;dashed=0;html=1;strokeColor=none;fillColor=#505050;labelPosition=center;verticalLabelPosition=bottom;verticalAlign=top;outlineConnect=0;align=center;shape=mxgraph.office.security.lock_with_key_security_blue;" parent="1" vertex="1">
          <mxGeometry x="358.96" y="166.25" width="31.2" height="40" as="geometry" />
        </mxCell>
        <mxCell id="md4awAcmVm3brXfSGonh-5" value="Identity Key Pair" style="sketch=0;pointerEvents=1;shadow=0;dashed=0;html=1;strokeColor=none;fillColor=#505050;labelPosition=center;verticalLabelPosition=bottom;verticalAlign=top;outlineConnect=0;align=center;shape=mxgraph.office.security.lock_with_key_security_orange;" parent="1" vertex="1">
          <mxGeometry x="356.55999999999995" y="100" width="31.2" height="39" as="geometry" />
        </mxCell>
        <mxCell id="md4awAcmVm3brXfSGonh-6" value="One-Time&lt;br style=&quot;border-color: var(--border-color);&quot;&gt;&lt;span style=&quot;background-color: rgb(255, 255, 255);&quot;&gt;Pre Keys&lt;/span&gt;" style="sketch=0;pointerEvents=1;shadow=0;dashed=0;html=1;strokeColor=none;fillColor=#505050;labelPosition=center;verticalLabelPosition=bottom;verticalAlign=top;outlineConnect=0;align=center;shape=mxgraph.office.security.lock_with_key_security_green;" parent="1" vertex="1">
          <mxGeometry x="359.84" y="246.25" width="30.32" height="40" as="geometry" />
        </mxCell>
        <mxCell id="md4awAcmVm3brXfSGonh-7" value="" style="sketch=0;pointerEvents=1;shadow=0;dashed=0;html=1;strokeColor=none;fillColor=#505050;labelPosition=center;verticalLabelPosition=bottom;verticalAlign=top;outlineConnect=0;align=center;shape=mxgraph.office.security.key_permissions;" parent="1" vertex="1">
          <mxGeometry x="1580" y="120.5" width="25" height="53" as="geometry" />
        </mxCell>
        <mxCell id="7v7PoPrR3EEPkG5Zikph-2" style="edgeStyle=orthogonalEdgeStyle;rounded=0;orthogonalLoop=1;jettySize=auto;html=1;strokeColor=#808080;" edge="1" parent="1" source="cpN0U-L1kkcXePPtnDGo-14" target="md4awAcmVm3brXfSGonh-5">
          <mxGeometry relative="1" as="geometry">
            <mxPoint x="118.2" y="196.25" as="sourcePoint" />
            <mxPoint x="208.2" y="106.25" as="targetPoint" />
            <Array as="points">
              <mxPoint x="270" y="186" />
              <mxPoint x="270" y="119" />
            </Array>
          </mxGeometry>
        </mxCell>
        <mxCell id="7v7PoPrR3EEPkG5Zikph-3" value="&lt;i style=&quot;font-size: 14px;&quot;&gt;generateKeys()&lt;/i&gt;" style="edgeLabel;html=1;align=center;verticalAlign=middle;resizable=0;points=[];fontSize=14;" vertex="1" connectable="0" parent="7v7PoPrR3EEPkG5Zikph-2">
          <mxGeometry x="-0.6012" y="-2" relative="1" as="geometry">
            <mxPoint x="11" y="-2" as="offset" />
          </mxGeometry>
        </mxCell>
        <mxCell id="md4awAcmVm3brXfSGonh-8" value="" style="sketch=0;pointerEvents=1;shadow=0;dashed=0;html=1;strokeColor=none;fillColor=#505050;labelPosition=center;verticalLabelPosition=bottom;verticalAlign=top;outlineConnect=0;align=center;shape=mxgraph.office.security.lock_with_key_security;" parent="1" vertex="1">
          <mxGeometry x="1569" y="50" width="47" height="58" as="geometry" />
        </mxCell>
        <mxCell id="7v7PoPrR3EEPkG5Zikph-12" value="&lt;div&gt;&lt;b&gt;WhatsApp&lt;/b&gt; client &lt;/div&gt;" style="dashed=0;outlineConnect=0;html=1;align=center;labelPosition=center;verticalLabelPosition=bottom;verticalAlign=top;shape=mxgraph.weblogos.whatsapp;fillColor=#00E676;strokeColor=#dddddd" vertex="1" parent="1">
          <mxGeometry x="68.19999999999999" y="429" width="39.79" height="40" as="geometry" />
        </mxCell>
        <mxCell id="7v7PoPrR3EEPkG5Zikph-15" value="SQLite" style="shape=image;verticalLabelPosition=bottom;labelBackgroundColor=default;verticalAlign=top;aspect=fixed;imageAspect=0;image=https://upload.wikimedia.org/wikipedia/commons/thumb/9/97/Sqlite-square-icon.svg/2048px-Sqlite-square-icon.svg.png;" vertex="1" parent="1">
          <mxGeometry x="346.3999999999999" y="420.4" width="57.2" height="57.2" as="geometry" />
        </mxCell>
        <mxCell id="7v7PoPrR3EEPkG5Zikph-16" style="edgeStyle=orthogonalEdgeStyle;rounded=0;orthogonalLoop=1;jettySize=auto;html=1;strokeColor=#808080;entryX=0;entryY=0.5;entryDx=0;entryDy=0;" edge="1" parent="1" source="7v7PoPrR3EEPkG5Zikph-12" target="7v7PoPrR3EEPkG5Zikph-15">
          <mxGeometry relative="1" as="geometry">
            <mxPoint x="118" y="166" as="sourcePoint" />
            <mxPoint x="288" y="246" as="targetPoint" />
          </mxGeometry>
        </mxCell>
        <mxCell id="7v7PoPrR3EEPkG5Zikph-17" value="&lt;i&gt;&lt;font style=&quot;font-size: 12px;&quot;&gt;storeKeys(keys)&lt;/font&gt;&lt;/i&gt;" style="edgeLabel;html=1;align=center;verticalAlign=middle;resizable=0;points=[];" vertex="1" connectable="0" parent="7v7PoPrR3EEPkG5Zikph-16">
          <mxGeometry x="-0.166" y="-2" relative="1" as="geometry">
            <mxPoint x="4" y="-2" as="offset" />
          </mxGeometry>
        </mxCell>
        <mxCell id="7v7PoPrR3EEPkG5Zikph-22" value="SQLite" style="shape=image;verticalLabelPosition=bottom;labelBackgroundColor=default;verticalAlign=top;aspect=fixed;imageAspect=0;image=https://upload.wikimedia.org/wikipedia/commons/thumb/9/97/Sqlite-square-icon.svg/2048px-Sqlite-square-icon.svg.png;" vertex="1" parent="1">
          <mxGeometry x="346.3999999999999" y="679.4" width="57.2" height="57.2" as="geometry" />
        </mxCell>
        <mxCell id="7v7PoPrR3EEPkG5Zikph-23" style="edgeStyle=orthogonalEdgeStyle;rounded=0;orthogonalLoop=1;jettySize=auto;html=1;strokeColor=#808080;exitX=0;exitY=0.5;exitDx=0;exitDy=0;" edge="1" parent="1" source="7v7PoPrR3EEPkG5Zikph-22" target="7v7PoPrR3EEPkG5Zikph-25">
          <mxGeometry relative="1" as="geometry">
            <mxPoint x="409.20000000000005" y="674.0299999999999" as="sourcePoint" />
            <mxPoint x="200.78999999999996" y="730.4300000000002" as="targetPoint" />
          </mxGeometry>
        </mxCell>
        <mxCell id="7v7PoPrR3EEPkG5Zikph-24" value="retrievePublicKeys()" style="edgeLabel;html=1;align=center;verticalAlign=middle;resizable=0;points=[];fontSize=15;fontStyle=2" vertex="1" connectable="0" parent="7v7PoPrR3EEPkG5Zikph-23">
          <mxGeometry x="0.325" y="-3" relative="1" as="geometry">
            <mxPoint x="34" y="3" as="offset" />
          </mxGeometry>
        </mxCell>
        <mxCell id="7v7PoPrR3EEPkG5Zikph-25" value="&lt;div&gt;&lt;b&gt;WhatsApp&lt;/b&gt; client &lt;/div&gt;" style="dashed=0;outlineConnect=0;html=1;align=center;labelPosition=center;verticalLabelPosition=bottom;verticalAlign=top;shape=mxgraph.weblogos.whatsapp;fillColor=#00E676;strokeColor=#dddddd" vertex="1" parent="1">
          <mxGeometry x="68.2" y="688" width="39.79" height="40" as="geometry" />
        </mxCell>
        <mxCell id="7v7PoPrR3EEPkG5Zikph-29" value="" style="group" vertex="1" connectable="0" parent="1">
          <mxGeometry x="202.20000000000002" y="647" width="58.120000000000005" height="32.39999999999998" as="geometry" />
        </mxCell>
        <mxCell id="7v7PoPrR3EEPkG5Zikph-26" value="Public Keys" style="sketch=0;pointerEvents=1;shadow=0;dashed=0;html=1;strokeColor=none;labelPosition=center;verticalLabelPosition=bottom;verticalAlign=top;outlineConnect=0;align=center;shape=mxgraph.office.security.key_permissions;fillColor=#2072B8;" vertex="1" parent="7v7PoPrR3EEPkG5Zikph-29">
          <mxGeometry x="20.5" width="15.28" height="32.4" as="geometry" />
        </mxCell>
        <mxCell id="7v7PoPrR3EEPkG5Zikph-27" value="" style="sketch=0;pointerEvents=1;shadow=0;dashed=0;html=1;strokeColor=none;labelPosition=center;verticalLabelPosition=bottom;verticalAlign=top;outlineConnect=0;align=center;shape=mxgraph.office.security.key_permissions;fillColor=#DA4026;" vertex="1" parent="7v7PoPrR3EEPkG5Zikph-29">
          <mxGeometry y="1.3999999999999773" width="14.62" height="31" as="geometry" />
        </mxCell>
        <mxCell id="7v7PoPrR3EEPkG5Zikph-28" value="" style="sketch=0;pointerEvents=1;shadow=0;dashed=0;html=1;strokeColor=none;labelPosition=center;verticalLabelPosition=bottom;verticalAlign=top;outlineConnect=0;align=center;shape=mxgraph.office.security.key_permissions;fillColor=#7FBA42;" vertex="1" parent="7v7PoPrR3EEPkG5Zikph-29">
          <mxGeometry x="43.5" y="1.3999999999999773" width="14.62" height="31" as="geometry" />
        </mxCell>
        <mxCell id="7v7PoPrR3EEPkG5Zikph-34" value="Phone Number" style="shape=image;verticalLabelPosition=bottom;labelBackgroundColor=default;verticalAlign=top;aspect=fixed;imageAspect=0;image=https://www.svgrepo.com/show/304555/phone-number.svg;" vertex="1" parent="1">
          <mxGeometry x="355.54999999999995" y="798.85" width="38.9" height="38.9" as="geometry" />
        </mxCell>
        <mxCell id="7v7PoPrR3EEPkG5Zikph-38" style="edgeStyle=orthogonalEdgeStyle;rounded=0;orthogonalLoop=1;jettySize=auto;html=1;strokeColor=#808080;entryX=0;entryY=0.5;entryDx=0;entryDy=0;entryPerimeter=0;" edge="1" parent="1" source="cpN0U-L1kkcXePPtnDGo-6" target="7v7PoPrR3EEPkG5Zikph-36">
          <mxGeometry relative="1" as="geometry">
            <mxPoint x="132" y="877" as="sourcePoint" />
            <mxPoint x="579" y="877" as="targetPoint" />
          </mxGeometry>
        </mxCell>
        <mxCell id="7v7PoPrR3EEPkG5Zikph-42" style="edgeStyle=orthogonalEdgeStyle;rounded=0;orthogonalLoop=1;jettySize=auto;html=1;strokeColor=#808080;" edge="1" parent="1" source="7v7PoPrR3EEPkG5Zikph-36" target="cpN0U-L1kkcXePPtnDGo-30">
          <mxGeometry relative="1" as="geometry">
            <mxPoint x="569" y="877" as="sourcePoint" />
            <mxPoint x="701" y="877" as="targetPoint" />
          </mxGeometry>
        </mxCell>
        <mxCell id="7v7PoPrR3EEPkG5Zikph-46" value="" style="group" vertex="1" connectable="0" parent="1">
          <mxGeometry x="710.5" y="829.4" width="63.75" height="62.60000000000002" as="geometry" />
        </mxCell>
        <mxCell id="7v7PoPrR3EEPkG5Zikph-36" value="ClientRegistrationLambda" style="sketch=0;points=[[0,0,0],[0.25,0,0],[0.5,0,0],[0.75,0,0],[1,0,0],[0,1,0],[0.25,1,0],[0.5,1,0],[0.75,1,0],[1,1,0],[0,0.25,0],[0,0.5,0],[0,0.75,0],[1,0.25,0],[1,0.5,0],[1,0.75,0]];outlineConnect=0;fontColor=#232F3E;fillColor=#ED7100;strokeColor=#ffffff;dashed=0;verticalLabelPosition=bottom;verticalAlign=top;align=center;html=1;fontSize=12;fontStyle=0;aspect=fixed;shape=mxgraph.aws4.resourceIcon;resIcon=mxgraph.aws4.lambda;" vertex="1" parent="7v7PoPrR3EEPkG5Zikph-46">
          <mxGeometry y="12.600000000000023" width="50" height="50" as="geometry" />
        </mxCell>
        <mxCell id="7v7PoPrR3EEPkG5Zikph-37" value="" style="outlineConnect=0;dashed=0;verticalLabelPosition=bottom;verticalAlign=top;align=center;html=1;shape=mxgraph.aws3.android;fillColor=#8CC64F;gradientColor=none;" vertex="1" parent="7v7PoPrR3EEPkG5Zikph-46">
          <mxGeometry x="39.5" width="24.25" height="27.71" as="geometry" />
        </mxCell>
        <mxCell id="7v7PoPrR3EEPkG5Zikph-47" value="Registration Topic" style="sketch=0;points=[[0,0,0],[0.25,0,0],[0.5,0,0],[0.75,0,0],[1,0,0],[0,1,0],[0.25,1,0],[0.5,1,0],[0.75,1,0],[1,1,0],[0,0.25,0],[0,0.5,0],[0,0.75,0],[1,0.25,0],[1,0.5,0],[1,0.75,0]];outlineConnect=0;fontColor=#232F3E;fillColor=#E7157B;strokeColor=#ffffff;dashed=0;verticalLabelPosition=bottom;verticalAlign=top;align=center;html=1;fontSize=12;fontStyle=0;aspect=fixed;shape=mxgraph.aws4.resourceIcon;resIcon=mxgraph.aws4.sns;" vertex="1" parent="1">
          <mxGeometry x="709.5" y="973" width="51" height="51" as="geometry" />
        </mxCell>
        <mxCell id="7v7PoPrR3EEPkG5Zikph-48" style="edgeStyle=orthogonalEdgeStyle;rounded=0;orthogonalLoop=1;jettySize=auto;html=1;strokeColor=#808080;" edge="1" parent="1" source="7v7PoPrR3EEPkG5Zikph-36" target="7v7PoPrR3EEPkG5Zikph-47">
          <mxGeometry relative="1" as="geometry">
            <mxPoint x="740" y="893" as="sourcePoint" />
            <mxPoint x="721" y="877" as="targetPoint" />
          </mxGeometry>
        </mxCell>
        <mxCell id="7v7PoPrR3EEPkG5Zikph-49" value="" style="dashed=0;outlineConnect=0;html=1;align=center;labelPosition=center;verticalLabelPosition=bottom;verticalAlign=top;shape=mxgraph.weblogos.sms;fillColor=#48B921;strokeColor=none" vertex="1" parent="1">
          <mxGeometry x="357.79999999999995" y="953" width="34.4" height="36" as="geometry" />
        </mxCell>
        <mxCell id="7v7PoPrR3EEPkG5Zikph-50" style="edgeStyle=orthogonalEdgeStyle;rounded=0;orthogonalLoop=1;jettySize=auto;html=1;strokeColor=#808080;" edge="1" parent="1" source="7v7PoPrR3EEPkG5Zikph-47" target="7v7PoPrR3EEPkG5Zikph-52">
          <mxGeometry relative="1" as="geometry">
            <mxPoint x="132" y="877" as="sourcePoint" />
            <mxPoint x="140" y="999" as="targetPoint" />
          </mxGeometry>
        </mxCell>
        <mxCell id="7v7PoPrR3EEPkG5Zikph-51" value="Send token" style="edgeLabel;html=1;align=center;verticalAlign=middle;resizable=0;points=[];fontSize=15;fontStyle=2" vertex="1" connectable="0" parent="7v7PoPrR3EEPkG5Zikph-50">
          <mxGeometry x="0.325" y="-3" relative="1" as="geometry">
            <mxPoint x="56" y="8" as="offset" />
          </mxGeometry>
        </mxCell>
        <mxCell id="7v7PoPrR3EEPkG5Zikph-52" value="&lt;div&gt;&lt;b&gt;WhatsApp&lt;/b&gt; client &lt;/div&gt;" style="dashed=0;outlineConnect=0;html=1;align=center;labelPosition=center;verticalLabelPosition=bottom;verticalAlign=top;shape=mxgraph.weblogos.whatsapp;fillColor=#00E676;strokeColor=#dddddd" vertex="1" parent="1">
          <mxGeometry x="68.2" y="973" width="39.79" height="40" as="geometry" />
        </mxCell>
        <mxCell id="7v7PoPrR3EEPkG5Zikph-53" value="Registration Key" style="points=[[0,0.5,0],[0.24,0,0],[0.5,0.28,0],[0.995,0.475,0],[0.5,0.72,0],[0.24,1,0]];verticalLabelPosition=bottom;sketch=0;html=1;verticalAlign=top;aspect=fixed;align=center;pointerEvents=1;shape=mxgraph.cisco19.key;fillColor=#005073;strokeColor=none;" vertex="1" parent="1">
          <mxGeometry x="357.2199999999999" y="887" width="35.56" height="16" as="geometry" />
        </mxCell>
        <mxCell id="7v7PoPrR3EEPkG5Zikph-54" value="&lt;font size=&quot;1&quot; style=&quot;font-style: normal;&quot; face=&quot;Courier New&quot;&gt;&lt;b style=&quot;font-size: 21px;&quot;&gt;1234&lt;/b&gt;&lt;/font&gt;" style="edgeLabel;html=1;align=center;verticalAlign=middle;resizable=0;points=[];fontSize=15;fontStyle=2" vertex="1" connectable="0" parent="1">
          <mxGeometry x="374.99999999999994" y="1024" as="geometry">
            <mxPoint x="-6" y="3" as="offset" />
          </mxGeometry>
        </mxCell>
        <mxCell id="7v7PoPrR3EEPkG5Zikph-56" style="edgeStyle=orthogonalEdgeStyle;rounded=0;orthogonalLoop=1;jettySize=auto;html=1;strokeColor=#808080;" edge="1" parent="1" source="7v7PoPrR3EEPkG5Zikph-55" target="cpN0U-L1kkcXePPtnDGo-6">
          <mxGeometry relative="1" as="geometry" />
        </mxCell>
        <mxCell id="7v7PoPrR3EEPkG5Zikph-60" value="&lt;font style=&quot;font-size: 15px;&quot;&gt;&lt;i&gt;[POST] /validateToken&lt;/i&gt;&lt;/font&gt;" style="edgeLabel;html=1;align=center;verticalAlign=middle;resizable=0;points=[];" vertex="1" connectable="0" parent="7v7PoPrR3EEPkG5Zikph-56">
          <mxGeometry x="-0.156" y="-5" relative="1" as="geometry">
            <mxPoint x="-41" y="-5" as="offset" />
          </mxGeometry>
        </mxCell>
        <mxCell id="7v7PoPrR3EEPkG5Zikph-55" value="&lt;div&gt;&lt;b&gt;WhatsApp&lt;/b&gt; client &lt;/div&gt;" style="dashed=0;outlineConnect=0;html=1;align=center;labelPosition=center;verticalLabelPosition=bottom;verticalAlign=top;shape=mxgraph.weblogos.whatsapp;fillColor=#00E676;strokeColor=#dddddd" vertex="1" parent="1">
          <mxGeometry x="68.2" y="1133" width="39.79" height="40" as="geometry" />
        </mxCell>
        <mxCell id="7v7PoPrR3EEPkG5Zikph-66" value="" style="group" vertex="1" connectable="0" parent="1">
          <mxGeometry x="280.69999999999993" y="1083" width="225.1500000000001" height="44.200000000000045" as="geometry" />
        </mxCell>
        <mxCell id="7v7PoPrR3EEPkG5Zikph-30" value="" style="group" vertex="1" connectable="0" parent="7v7PoPrR3EEPkG5Zikph-66">
          <mxGeometry x="81.27999999999997" width="58.120000000000005" height="32.39999999999998" as="geometry" />
        </mxCell>
        <mxCell id="7v7PoPrR3EEPkG5Zikph-31" value="Public Keys" style="sketch=0;pointerEvents=1;shadow=0;dashed=0;html=1;strokeColor=none;labelPosition=center;verticalLabelPosition=bottom;verticalAlign=top;outlineConnect=0;align=center;shape=mxgraph.office.security.key_permissions;fillColor=#2072B8;" vertex="1" parent="7v7PoPrR3EEPkG5Zikph-30">
          <mxGeometry x="20.5" width="15.28" height="32.4" as="geometry" />
        </mxCell>
        <mxCell id="7v7PoPrR3EEPkG5Zikph-32" value="" style="sketch=0;pointerEvents=1;shadow=0;dashed=0;html=1;strokeColor=none;labelPosition=center;verticalLabelPosition=bottom;verticalAlign=top;outlineConnect=0;align=center;shape=mxgraph.office.security.key_permissions;fillColor=#DA4026;" vertex="1" parent="7v7PoPrR3EEPkG5Zikph-30">
          <mxGeometry y="1.3999999999999773" width="14.62" height="31" as="geometry" />
        </mxCell>
        <mxCell id="7v7PoPrR3EEPkG5Zikph-33" value="" style="sketch=0;pointerEvents=1;shadow=0;dashed=0;html=1;strokeColor=none;labelPosition=center;verticalLabelPosition=bottom;verticalAlign=top;outlineConnect=0;align=center;shape=mxgraph.office.security.key_permissions;fillColor=#7FBA42;" vertex="1" parent="7v7PoPrR3EEPkG5Zikph-30">
          <mxGeometry x="43.5" y="1.3999999999999773" width="14.62" height="31" as="geometry" />
        </mxCell>
        <mxCell id="7v7PoPrR3EEPkG5Zikph-35" value="+" style="text;html=1;strokeColor=none;fillColor=none;align=center;verticalAlign=middle;whiteSpace=wrap;rounded=0;fontSize=14;" vertex="1" parent="7v7PoPrR3EEPkG5Zikph-66">
          <mxGeometry x="124.80000000000001" y="1.2000000000000455" width="60" height="30" as="geometry" />
        </mxCell>
        <mxCell id="7v7PoPrR3EEPkG5Zikph-61" value="Registration Key" style="points=[[0,0.5,0],[0.24,0,0],[0.5,0.28,0],[0.995,0.475,0],[0.5,0.72,0],[0.24,1,0]];verticalLabelPosition=bottom;sketch=0;html=1;verticalAlign=top;aspect=fixed;align=center;pointerEvents=1;shape=mxgraph.cisco19.key;fillColor=#005073;strokeColor=none;" vertex="1" parent="7v7PoPrR3EEPkG5Zikph-66">
          <mxGeometry y="8.200000000000045" width="35.56" height="16" as="geometry" />
        </mxCell>
        <mxCell id="7v7PoPrR3EEPkG5Zikph-63" value="+" style="text;html=1;strokeColor=none;fillColor=none;align=center;verticalAlign=middle;whiteSpace=wrap;rounded=0;fontSize=14;" vertex="1" parent="7v7PoPrR3EEPkG5Zikph-66">
          <mxGeometry x="35.56" y="1.2000000000000455" width="60" height="30" as="geometry" />
        </mxCell>
        <mxCell id="7v7PoPrR3EEPkG5Zikph-64" value="&lt;font size=&quot;1&quot; style=&quot;font-style: normal;&quot; face=&quot;Courier New&quot;&gt;&lt;b style=&quot;font-size: 21px;&quot;&gt;1234&lt;/b&gt;&lt;/font&gt;" style="edgeLabel;html=1;align=center;verticalAlign=middle;resizable=0;points=[];fontSize=15;fontStyle=2" vertex="1" connectable="0" parent="7v7PoPrR3EEPkG5Zikph-66">
          <mxGeometry x="207.95333333333332" y="16.200000000000045" as="geometry">
            <mxPoint x="-6" y="3" as="offset" />
          </mxGeometry>
        </mxCell>
        <mxCell id="7v7PoPrR3EEPkG5Zikph-65" value="&lt;span style=&quot;color: rgb(0, 0, 0); font-family: Helvetica; font-size: 12px; font-style: normal; font-variant-ligatures: normal; font-variant-caps: normal; font-weight: 400; letter-spacing: normal; orphans: 2; text-align: center; text-indent: 0px; text-transform: none; widows: 2; word-spacing: 0px; -webkit-text-stroke-width: 0px; background-color: rgb(251, 251, 251); text-decoration-thickness: initial; text-decoration-style: initial; text-decoration-color: initial; float: none; display: inline !important;&quot;&gt;token&lt;/span&gt;" style="text;whiteSpace=wrap;html=1;" vertex="1" parent="7v7PoPrR3EEPkG5Zikph-66">
          <mxGeometry x="185.15000000000003" y="24.200000000000045" width="40" height="20" as="geometry" />
        </mxCell>
        <mxCell id="7v7PoPrR3EEPkG5Zikph-71" value="" style="group" vertex="1" connectable="0" parent="1">
          <mxGeometry x="143.89999999999998" y="360" width="156.72000000000003" height="30.620000000000005" as="geometry" />
        </mxCell>
        <mxCell id="7v7PoPrR3EEPkG5Zikph-68" value="Signed Pre &lt;br&gt;Key Pair" style="sketch=0;pointerEvents=1;shadow=0;dashed=0;html=1;strokeColor=none;fillColor=#505050;labelPosition=center;verticalLabelPosition=bottom;verticalAlign=top;outlineConnect=0;align=center;shape=mxgraph.office.security.lock_with_key_security_blue;" vertex="1" parent="7v7PoPrR3EEPkG5Zikph-71">
          <mxGeometry x="68" width="27.6" height="30.62" as="geometry" />
        </mxCell>
        <mxCell id="7v7PoPrR3EEPkG5Zikph-69" value="Identity Key &lt;br&gt;Pair" style="sketch=0;pointerEvents=1;shadow=0;dashed=0;html=1;strokeColor=none;fillColor=#505050;labelPosition=center;verticalLabelPosition=bottom;verticalAlign=top;outlineConnect=0;align=center;shape=mxgraph.office.security.lock_with_key_security_orange;" vertex="1" parent="7v7PoPrR3EEPkG5Zikph-71">
          <mxGeometry width="30" height="30" as="geometry" />
        </mxCell>
        <mxCell id="7v7PoPrR3EEPkG5Zikph-70" value="One-Time&lt;br style=&quot;border-color: var(--border-color);&quot;&gt;&lt;span style=&quot;background-color: rgb(255, 255, 255);&quot;&gt;Pre Key&lt;br&gt;Pairs&lt;br&gt;&lt;/span&gt;" style="sketch=0;pointerEvents=1;shadow=0;dashed=0;html=1;strokeColor=none;fillColor=#505050;labelPosition=center;verticalLabelPosition=bottom;verticalAlign=top;outlineConnect=0;align=center;shape=mxgraph.office.security.lock_with_key_security_green;" vertex="1" parent="7v7PoPrR3EEPkG5Zikph-71">
          <mxGeometry x="130" width="26.72" height="30.62" as="geometry" />
        </mxCell>
      </root>
    </mxGraphModel>
  </diagram>
</mxfile>
